<?xml version="1.0" encoding="UTF-8"?> <svg xmlns="http://www.w3.org/2000/svg" xmlns:xlink="http://www.w3.org/1999/xlink" width="160" height="160" viewBox="0 0 160 160"><defs><clipPath id="clip-path"><rect id="Rectangle_14" data-name="Rectangle 14" width="108.719" height="72.013" fill="none"></rect></clipPath></defs><g id="Group_65" data-name="Group 65" transform="translate(-638 -64)"><path id="Path_44" data-name="Path 44" d="M80,0A80,80,0,1,1,0,80,80,80,0,0,1,80,0Z" transform="translate(638 64)" fill="#372d76"></path><g id="Group_51" data-name="Group 51" transform="translate(665.885 114.898)"><g id="Group_49" data-name="Group 49" clip-path="url(#clip-path)"><path id="Path_24" data-name="Path 24" d="M9.213,2.116,8.031,15.209,6.578,30.268,5.053,15.209,3.8.51,0,2.116,2.265,21.1,4.539,40.564l3.979-1.615L10.7,21.1,12.876.51Z" transform="translate(0 -0.05)" fill="#f9f9f9"></path><path id="Path_25" data-name="Path 25" d="M19.51,2.116V40.564l3.736-1.615V.51Z" transform="translate(-1.906 -0.05)" fill="#f9f9f9"></path><path id="Path_26" data-name="Path 26" d="M77.359,2.116v25.03l-3.3-12.208L71.3.51,68.11,2.116V40.564l3.736-1.615V20.388L77.3,40.564l3.79-1.615V.51Z" transform="translate(-6.654 -0.05)" fill="#f9f9f9"></path><path id="Path_27" data-name="Path 27" d="M1011.306,518.538l.992-10.99.975,10.99.749,10.656h-3.447Zm-1.4-16.35-2.048,19.039-2.039,19.436,3.609-1.615.731-5.224h4.277l.776,6.84,3.609-1.615-1.958-17.794-1.958-20.654Z" transform="translate(-910.112 -500.122)" fill="#f9f9f9"></path></g><g id="Group_50" data-name="Group 50" clip-path="url(#clip-path)"><path id="Path_28" data-name="Path 28" d="M939.06,522.235l.126-.1A4.728,4.728,0,0,0,941.4,518.7h0a65.545,65.545,0,0,0,.406-8.274,32.849,32.849,0,0,0-.379-5.26,6.54,6.54,0,0,0-1.164-2.527,4.385,4.385,0,0,0-2.157-1.588,11.928,11.928,0,0,0-3.835-.46l-3.9,1.615v38.456l3.736-1.615V526.1l1.8-1.39,2.617,15.953,4.042-1.615Zm-.9-8.518a27.17,27.17,0,0,1-.072,3.194,4.8,4.8,0,0,1-.126.776,2.455,2.455,0,0,1-.226.55,2.131,2.131,0,0,1-.424.559,29.871,29.871,0,0,1-2.788,2.256l-.4.307v-17.4s3.077-1.8,3.817.9c0,0,.225.514.225,4.575h0v4.3" transform="translate(-902.741 -500.12)" fill="#f9f9f9"></path><path id="Path_29" data-name="Path 29" d="M998.472,501.956a5.748,5.748,0,0,0-4.376-1.886c-1.913,0-3.366,2.2-4.313,3.357a8.281,8.281,0,0,0-1.444,5.3v24.669a19.438,19.438,0,0,0,.172,3.131,5.9,5.9,0,0,0,.659,1.994,5,5,0,0,0,1.732,1.868,4.512,4.512,0,0,0,2.382.686,2.084,2.084,0,0,0,1.543-.632c.9-.74,2.454-3.853,2.454-3.853l.74,4.033,1.8-1.615V521.148h-5.567v3.736l2.409-.063v.063c0-.343-.352,7.4-.541,10.115v.2a2.538,2.538,0,0,1-.081.641.32.32,0,0,1,0,.063,2.255,2.255,0,0,1-1.8,1.741h-.271a1.67,1.67,0,0,1-.55-.153,1.468,1.468,0,0,1-.361-.171,2.067,2.067,0,0,1-.695-.812h0a2.455,2.455,0,0,1-.244-.956c0-.406-.054-1-.054-2.2V506.323h0c.108-1.146.9-2.923,1.958-2.923a1.9,1.9,0,0,1,1.1.361,1.615,1.615,0,0,1,.659.767.9.9,0,0,1,.063.19.442.442,0,0,1,0,.1v-.063a22.922,22.922,0,0,1,.307,3.79h0v7.02h3.736V511.62h0v-2.256c0-2.572-.163-6.091-1.48-7.4" transform="translate(-908.404 -500.07)" fill="#f9f9f9"></path><path id="Path_30" data-name="Path 30" d="M956.456,502.185v32.943a2.427,2.427,0,0,1-1.958,2.454h-.271a2.057,2.057,0,0,1-1.155-.559.19.19,0,0,1-.2-.081,3.492,3.492,0,0,1-.478-2.03V500.57l-3.736,1.615V533.18a18.509,18.509,0,0,0,.623,3.916h0c.514,1.6,1.462,3.077,3.185,3.42,4.25.848,6.8-3.393,6.8-3.393h0a5.483,5.483,0,0,0,.541-1.083v.144a5.065,5.065,0,0,0,.262-.974,23.591,23.591,0,0,0,.171-3.663V500.57Z" transform="translate(-904.528 -500.119)" fill="#f9f9f9"></path><path id="Path_31" data-name="Path 31" d="M977.545,552.1a1.119,1.119,0,0,1,.3-.577,1.29,1.29,0,0,0,.37-.6,3.2,3.2,0,0,1,.379-.839c.117-.2.09-.469.316-.6v-.045c-.144-.469.126-.235.289-.171a.461.461,0,0,0,.271,0,6.541,6.541,0,0,1,.767-.217c.442,0,.6.388.9.587a4.512,4.512,0,0,0-.713,1.642c-.054.253-.244.451-.307.722s-.054.442-.28.569c.108.343-.162.6-.217.9a5.311,5.311,0,0,1-.433,1.344c-.081.162-.054.379-.18.532,0,0,0,.09.045.108a.136.136,0,0,0,.19,0c.189-.144.4-.235.514-.469a3.733,3.733,0,0,1,.514-.776c.135-.144.253-.307.5-.235.09,0,.162,0,.126-.144a.523.523,0,0,1,.379-.668c.09,0,.117-.226.271-.126.117-.289.144-.587.46-.749a.731.731,0,0,0,.361-.388h0c.478-.1.487-.614.767-.9a4.556,4.556,0,0,1,.668-.451s.108-.045.117-.081c.081-.307.379-.415.541-.65a.37.37,0,0,1,.307-.153c.144,0,.18-.063.2-.181,0-.352.117-.415.487-.343l.487-.469c.063.117.135.171.289.09a1.155,1.155,0,0,1,1.074.361s0,.081,0,.09c-.217.244-.117.578-.3.848a10.749,10.749,0,0,0-.623,1.3c-.225.442-.469.9-.713,1.3a.243.243,0,0,1-.117.135c-.108,0-.19.1-.144.244s-.108.144-.153.235c.216.289,0,.532-.117.749a3.416,3.416,0,0,0-.379.993c-.045.244-.253.424-.253.668a2.293,2.293,0,0,1-.244.9,12.428,12.428,0,0,0-.4,1.453.388.388,0,0,0,0,.37.371.371,0,0,0,.28-.144c.271-.28.532-.568.794-.848a.307.307,0,0,1,.325-.126.449.449,0,0,0,.334-.244,4.038,4.038,0,0,1,.7-.993l.171-.19c.181-.226.316-.505.632-.6.081,0,.108-.063.108-.172a.271.271,0,0,1,.325-.28c.235.054.19-.063.253-.144s0-.208,0-.3c.244-.325.334-.325.541,0,.045-.162.045-.162-.253-.424a9.311,9.311,0,0,0,1.552-1.8c.054,0,0,.117.144.117s0-.054.045-.09a.514.514,0,0,1,.226-.46.433.433,0,0,0,.162-.406.542.542,0,0,1,.388-.614c.225-.1.207-.262.244-.424s0-.135,0-.171c.208-.244.154-.6.361-.848s.226-.6.442-.9c0,0,.072-.117.1-.108.28,0,.388-.253.6-.352s.172-.325.271-.487a1.948,1.948,0,0,1,.586-.532c.343-.244.812-.307,1.074-.695.072-.108.181-.162.3-.045a.117.117,0,0,0,.135,0,2.174,2.174,0,0,1,1.381.334c.226.1.181.505-.09.632a3.477,3.477,0,0,0-.668.415,4.9,4.9,0,0,0-1.02.965,7.779,7.779,0,0,1-1.038,1.5.217.217,0,0,0-.072.135,10.048,10.048,0,0,0-.442,1.543.244.244,0,0,1-.144.217,1.652,1.652,0,0,1,.18.9c-.045.171-.108.334.126.415a.379.379,0,0,0,.478-.189c.09-.126.117-.307.343-.217h.063c.108-.244.451-.226.532-.505,0-.126.216,0,.307-.135a.766.766,0,0,1,.55-.361c.117,0,.208-.135.28-.271a2.3,2.3,0,0,1,.659-.451,1.055,1.055,0,0,1,.6-.262.48.48,0,0,0,.334-.28c.054-.135.18-.216.343-.063.09-.207.3-.235.469-.334s.352-.117.442-.316.19-.045.3,0,.063-.2.19-.217a1.074,1.074,0,0,0,.577-.352,1.589,1.589,0,0,1,.668-.226.289.289,0,0,0,.253-.361.505.505,0,0,1,.541-.6,6.075,6.075,0,0,1,1.146,0,2.581,2.581,0,0,1,1.4.406c.171.126.153.244,0,.307s-.153.171-.235.253a.785.785,0,0,1-.9.117.7.7,0,0,0-.659,0c-.2.063-.379.144-.578.217a3.663,3.663,0,0,0-.839.424,1.8,1.8,0,0,1-.9.325.668.668,0,0,0-.316.162,2.634,2.634,0,0,1-1,.568,1.809,1.809,0,0,0-.505.352,10.849,10.849,0,0,1-1.335.9,2.977,2.977,0,0,0-1.038.9.344.344,0,0,1-.171.144,4.267,4.267,0,0,0-1.218,1.02c-.063.054-.117.126-.189.18a.812.812,0,0,0-.244.975,2.474,2.474,0,0,1,.2,1.119c0,.18.117.379.135.586a4.856,4.856,0,0,1,.1.956c-.045.505-.09,1.011-.144,1.516a.4.4,0,0,1-.1.262,2.012,2.012,0,0,0-.388.9,4.151,4.151,0,0,1-.469.7c-.063.1-.153-.054-.253,0a1.01,1.01,0,0,1-.532.8,2.337,2.337,0,0,1-.9.505h-.307a2.381,2.381,0,0,1-1.534-.289,2.27,2.27,0,0,1-.569-.5,1.811,1.811,0,0,1-.3-.388c0-.108-.135-.18,0-.325s-.144-.18-.135-.316.181.045.28-.054,0-.2,0-.316-.063-.162.072-.235,0-.135-.054-.19a.189.189,0,0,1,0-.28c.2-.217.189-.541.406-.758.081-.09,0-.226.072-.343a.614.614,0,0,1,.262-.325c.171-.09.153-.316.216-.469s.181-.334.262-.5c.154-.352.523-.55.632-.9a.343.343,0,0,1,.126-.19,4.52,4.52,0,0,0,.569-.767,3.429,3.429,0,0,0,.523-.668.424.424,0,0,0-.162-.569.469.469,0,0,1-.19-.415v-.171c-.217-.208-.144-.541-.343-.749a.1.1,0,0,1,0-.072,1.669,1.669,0,0,0-.135-1.182c-.18-.054-.271.244-.478.325a.368.368,0,0,0,0,.144.784.784,0,0,1-.072.614c-.117.262-.415.442-.388.767a.153.153,0,0,1-.063.135c-.226.144-.262.433-.469.587a1.2,1.2,0,0,0-.2.568c-.343,0-.46.307-.6.55s-.442.641-.641.984c-.334.568-.9.974-1.209,1.525a1.277,1.277,0,0,1-.28.262c-.153.117-.352.208-.271.487a.543.543,0,0,1-.2.343,9.519,9.519,0,0,0-.839.975c-.2.235-.478.388-.686.614s-.3,0-.46,0a1.246,1.246,0,0,1-.8-.054,4.359,4.359,0,0,1-.848-.478.121.121,0,0,1-.081-.172c.036-.09.162.144.289,0s-.117-.235,0-.37.244-.063.361,0c.054-.216,0-.334-.2-.289a.6.6,0,0,1-.379,0c-.1.081,0,.226-.126.3a1.494,1.494,0,0,1,0-.568c0-.253.19-.289.415-.325-.307-.379.072-.713,0-1.074V557.3c-.144-.37-.144-.379.244-.614-.244-.262-.162-.46.153-.568a1.218,1.218,0,0,1,.216-1.326c0,.2-.19.316-.19.505s-.045.162.054.19.135,0,.163-.117a2.212,2.212,0,0,1,.207-.379c.063-.1,0-.153,0-.235s-.144-.244.081-.3.153-.162.18-.271a.9.9,0,0,1,.1-.262c.126-.208.2-.406-.063-.6s-.135-.271,0-.442c.108.144.054.343.2.451.153-.081.171-.144.162-.578l-.316-.072c.09-.1.135-.18.271-.072s.216.081.262-.1.117-.4-.108-.532c-.054,0,0-.081,0-.117a.3.3,0,0,0-.144-.307c-.2.162-.487.244-.514.587a.089.089,0,0,1,0,.063c-.316.18-.406.55-.632.812s-.325.74-.614,1.029-.559.9-.9,1.317a3.046,3.046,0,0,0-.541.659c-.09.18-.361.289-.3.55v.072a.722.722,0,0,0-.415.632s-.1.081-.153.117-.117,0-.126.072c-.054.262-.28.451-.307.722h-.225v.072c0,.253.063.505-.19.668,0,0-.063.054-.063.081,0,.352-.3.523-.451.785s-.343.235-.451.433-.18,0-.3,0a1.345,1.345,0,0,1-1.236-.153,2.712,2.712,0,0,0-.487-.226.3.3,0,0,1-.054-.55c.09-.063,0-.162.081-.226s.126,0,.207,0a.352.352,0,0,1,.144-.442c.117-.09.1-.144-.045-.307.1,0,.2-.072.144-.18a.55.55,0,0,1,.09-.695c.162-.171.126-.415.153-.6.054-.388.19-.749.262-1.128v-.1c-.208,0-.253.2-.289.37-.126,0-.144-.1-.235-.126a.3.3,0,0,0-.117.334c-.072,0-.135-.09-.2,0,.226.253-.063.415-.18.559s-.235.469-.388.677c-.081.054-.144-.063-.216,0s.072.126.054.18-.1.054-.1.081c-.054.307-.352.451-.469.722,0,.072-.063.162-.144.153-.28,0-.28.2-.262.37a.64.64,0,0,1-.226.514,7.112,7.112,0,0,0-.668.9,6.109,6.109,0,0,1-.722.9,2.857,2.857,0,0,0-.361.379.7.7,0,0,1-.55.244c-.244,0-.5.045-.749.054a.424.424,0,0,1-.442-.153.28.28,0,0,0-.289-.117c-.181,0-.28-.208-.316-.406a.613.613,0,0,1,.054-.352l-.243-.144c-.144,0,0,.153-.072.208-.3-.334-.289-.614,0-.731.153-.37-.307-.4-.352-.677.09,0,.171.063.28,0a.533.533,0,0,0,.09-.3c.081,0,.171.054.244,0a.253.253,0,0,0-.117-.28v-.144a.262.262,0,0,0,0-.424c0-.235.289-.271.316-.514s-.316-.37-.162-.632c.343.054.424-.045.469-.578-.226-.054-.442.09-.668.054,0,0-.117.081-.1.162a3.44,3.44,0,0,1-.09.487c-.162-.253.117-.514-.09-.7-.153.054,0,.244-.208.262a.217.217,0,0,1,.108-.3,1.8,1.8,0,0,0,.659-.9,1.355,1.355,0,0,1-.262.785c.045.1.1.09.162.063a3.97,3.97,0,0,0,.613-.4c.117-.081.072-.18.054-.28s-.126,0-.217-.063a4.6,4.6,0,0,0,.253-.776.675.675,0,0,0,.081-.442.153.153,0,0,1,.081-.2.424.424,0,0,0,.235-.4.694.694,0,0,1,.135-.271c.1-.162.144-.307,0-.469a.244.244,0,0,1,.072-.379c.154-.1.262-.181.163-.37h0c.262-.451.18-.983.37-1.453a1.922,1.922,0,0,0,.208-.9c0-.1,0-.2.144-.126a.821.821,0,0,0,1.056,0c.081.307.361.207.532.316s.343.162.189.415c.217,0,.2.108.135.262a6.2,6.2,0,0,0-.325,1.056.588.588,0,0,1-.1.2c0,.081-.108.144-.09.235a1.552,1.552,0,0,1-.334.965,6.136,6.136,0,0,0-.334.9,1.575,1.575,0,0,1-.19.415,2.029,2.029,0,0,0-.226.9,3.6,3.6,0,0,1-.217.623,5.984,5.984,0,0,1-.487,1.362c-.072.117,0,.3-.063.451s-.054.3-.153.352a5.415,5.415,0,0,0,0,1.272,10.428,10.428,0,0,0,.785-.9c.117-.126.207-.28.388-.325a.135.135,0,0,0,.1-.108c0-.388.433-.514.55-.812.153,0,.126.144.244.18l.316-.37a.135.135,0,0,0,0-.162c-.144-.208,0-.343.126-.46a3.091,3.091,0,0,0,.316-.37c.081-.108.154-.226.352-.18s.307-.126.307-.325a.442.442,0,0,1,.28-.433c.271-.162.6-.334.578-.758,0-.144,0-.334.262-.262.045,0,.09-.054.108-.1a1.262,1.262,0,0,1,.442-.632c.09-.081.1-.244.18-.343s.09-.37.343-.37c0,0,.054-.081,0-.135a.27.27,0,0,1,.063-.244c.2-.162.144-.361.117-.569.063.063.09.172.216.162a.289.289,0,0,0,.117-.307c-.09,0-.108.063-.144.1m13.038,8.9v-.117c.217-.162.5-.262.487-.6a.829.829,0,0,0,.108-.1,1.722,1.722,0,0,0,.424-.65.552.552,0,0,1,.072-.343c.235-.216.162-.55.325-.785a.307.307,0,0,0,0-.28.442.442,0,0,1,0-.37c0-.063.081-.135,0-.216s0,.135-.144.126a.677.677,0,0,1,.153-.37.217.217,0,0,0,0-.334.721.721,0,0,1-.244-.469.307.307,0,0,0-.18-.289c-.117,0-.181.1-.271.171a4.059,4.059,0,0,0-.325.514,3.4,3.4,0,0,0-.613,1.155c-.063.235-.262.388-.28.623a4.707,4.707,0,0,1-.361,1.164,1.2,1.2,0,0,0,0,.9c.054.144.189.316.37.2s.262,0,.406.054m-1.236-7.219c0-.108.108-.2,0-.307s-.126-.144-.244-.063c0,.135,0,.316.226.37m-6.993,3.113a.434.434,0,0,0-.054.307c.072,0,.162.09.216,0s-.063-.19-.162-.289" transform="translate(-906.551 -504.563)" fill="#f9f9f9"></path><path id="Path_32" data-name="Path 32" d="M967.059,558.159a.334.334,0,0,1-.135.37c-.289.144-.325.451-.487.668s-.37.433-.532.677c-.5.74-1.011,1.462-1.462,2.238a5.3,5.3,0,0,0-.37,1.245,2.424,2.424,0,0,1-.172.343c-.09.2.063.37,0,.568s-.135.668-.253.975c-.262.713-.271,1.489-.5,2.2a4.291,4.291,0,0,0-.253.749c-.054.5-.262.974-.316,1.471,0,.235-.181.424-.181.668,0,.09-.126,0-.189.09.235.262-.063.5-.063.758a1.525,1.525,0,0,1-.271.794c0,.045-.072.081-.054.135a1.932,1.932,0,0,1-.244,1.092,2.994,2.994,0,0,1-.2.686,5,5,0,0,0-.442,1.155,6.913,6.913,0,0,1-.614,1.173,1.932,1.932,0,0,1-1.435.9,3.854,3.854,0,0,1-1.245.081,2.708,2.708,0,0,1-1.065-.253c-.081-.045-.226,0-.262-.171-.271.108-.4,0-.46-.262a1.532,1.532,0,0,1,0-.984.253.253,0,0,0,0-.2.685.685,0,0,1,.261-.821c.19-.144.253-.307.09-.514a.162.162,0,0,1,0-.19c.226-.361.2-.848.478-1.146a.974.974,0,0,0,.334-.632.316.316,0,0,1,.2-.253c.144-.063,0-.181,0-.262s.135.054.235,0,.072-.307,0-.5,0-.271.171-.262a.126.126,0,0,0,.081-.081c0-.406.4-.659.433-1.047,0-.135.262-.144.144-.325.108,0,.153.072.244.063s0-.054,0-.072c-.09-.226.135-.334.217-.487a.523.523,0,0,0,.09-.424c.081-.063.117,0,.208,0,.144-.343.162-.8.668-.9,0-.325.226-.532.271-.812.271,0,.28-.307.46-.406,0,0,.1-.063.1-.09,0-.3.217-.451.37-.65s.09-.208.225-.217a.144.144,0,0,0,.126-.144c0-.2.1-.235.28-.208-.072-.316.451-.37.244-.713.09-.054.117.108.208,0-.1-.325.208-.442.4-.623s.162-.126.171-.226c0-.316.226-.586.262-.9,0-.126.144-.1.244-.117-.072-.144-.09-.262.063-.361s.144-.153.1-.208c-.189-.208-.09-.451-.108-.668l.081.09a.137.137,0,0,0,.153.117.145.145,0,0,0,.108-.126c0-.081,0-.189-.045-.208s-.154-.171-.244-.235.117-.081.054-.144a.147.147,0,0,0-.217,0c-.072.063.063-.162,0-.226s-.108.1-.153.153a.09.09,0,0,0,0,.135c.054.072.1,0,.144,0s-.063.108-.063.162,0,.226.154.144a.44.44,0,0,1,0,.108.321.321,0,0,0-.3.2,1.418,1.418,0,0,1-.487.632c-.1.054-.09.307-.316.316a.451.451,0,0,1-.045.442,5.66,5.66,0,0,1-.9,1.29,2.291,2.291,0,0,0-.578.857c-.108.063-.108-.1-.19,0h0c.108.469-.253.587-.55.758a.317.317,0,0,0-.1.117.128.128,0,0,1-.126.117c-.343,0-.65.171-.984.153a.378.378,0,0,1-.216-.081c-.172-.162-.4-.117-.6-.135s-.253-.144-.361-.253c.063-.072.153,0,.2-.081-.162-.126-.226-.334-.388-.46s0-.144,0-.226,0-.144-.162-.217,0,.172-.072.244-.1-.117-.217-.09c-.18.478-.65.785-.9,1.218s-.767.641-1.056,1.047a.451.451,0,0,1-.65.1.5.5,0,0,0-.361-.081c-.487,0-1.245-.352-1.317-.9a.433.433,0,0,1,.126-.415c.234-.226.226-.343-.054-.514,0-.072,0-.1.081-.144l.108-.126a.433.433,0,0,1-.117-.316c-.09,0-.108.063-.162.081a.9.9,0,0,1,.226-.9,1.038,1.038,0,0,0-.063-1.038.749.749,0,0,0,.226-.8.56.56,0,0,1,.081-.325,2.021,2.021,0,0,0,.2-.9c0-.171.144-.3.117-.478s-.171,0-.253.081a.3.3,0,0,1,0-.388,2.607,2.607,0,0,0,.388-1.317v-.1c0-.018.09-.235,0-.352a3.39,3.39,0,0,1,.28-.244.333.333,0,0,0,.163-.253c0-.325.126-.614.117-.9a2.273,2.273,0,0,1,.171-.722,1.67,1.67,0,0,0,.1-1.146c-.045-.117.072-.153.181-.153l1.435-.045a.74.74,0,0,1,.6.3c.108.117,0,.253-.09.388.2.2.054.415,0,.6a1.236,1.236,0,0,0-.117.668,2.207,2.207,0,0,1-.09.37c-.09.65-.4,1.245-.55,1.886-.045.207-.153.4-.208.586a7.424,7.424,0,0,0-.442,1.353,7.336,7.336,0,0,1-.271,1.435,5.777,5.777,0,0,0-.144,1.164,10.238,10.238,0,0,0,0,1.489.561.561,0,0,0,0,.1c.334-.117.334-.614.722-.614a1.606,1.606,0,0,1,.758-.9,1.173,1.173,0,0,0,.5-.623,1.317,1.317,0,0,1,.388-.6,4.988,4.988,0,0,0,.586-.839c.28-.343.117-.794.316-1.164s.1-.541.28-.758a.09.09,0,0,0,0-.117c-.072-.108,0-.153.054-.226.108-.244.469-.343.379-.686-.144,0-.18.126-.271.162a1.056,1.056,0,0,1,.6-.686c.334-.1.361-.153.271-.424l.9-.424c-.226-.1-.135-.316-.217-.46.072-.108.19-.063.253-.117.09-.2.063-.46.307-.577.144-.451.632-.659.812-1.1.1-.217-.081-.262-.171-.361a.3.3,0,0,1,.325-.163c0-.108,0-.18.126-.244a1.732,1.732,0,0,0,.767-.6c.045-.09.162,0,.243,0s.3,0,.28-.217c.379.235.388.235.469-.108.108.135.2.117.352.063a.64.64,0,0,1,.469.09c.361.18.767.171,1.128.325a.162.162,0,0,0,.208-.1c.153-.361.388-.415.713-.18h.135c.189-.3.253-.316.6-.18a2.063,2.063,0,0,0,.325.135c.108,0,.234.135.135.253a.939.939,0,0,0-.126.451,2.51,2.51,0,0,1-.226.9,4.66,4.66,0,0,0-.316,1.155,13.958,13.958,0,0,1-.686,1.6,8.132,8.132,0,0,1-.307.776c-.2.325-.216.713-.406,1.047a1.142,1.142,0,0,0-.054.532.153.153,0,0,0,.19.135.348.348,0,0,0,.37-.253.758.758,0,0,1,.686-.632.451.451,0,0,1,.4-.587c0-.28.244-.289.388-.424Zm-6.181,3.609c0-.4.55-.559.424-1a.6.6,0,0,0,.135.352c.144-.117.171-.271.081-.532.217,0,.253,0,.217-.388.19,0,.28-.19.451-.262s.352-.108.289-.361a.141.141,0,0,1,.09-.153c.226-.135.334-.379.532-.541a.316.316,0,0,0,.108-.37.217.217,0,0,1,0-.207c0,.054,0,.144.081.144a.1.1,0,0,0,.117-.108c0-.226.217-.352.235-.569,0-.072.117-.126.162-.18s.415-.108.5-.316a1.679,1.679,0,0,0,.253-.749.685.685,0,0,1,.054-.325c.19-.406.379-.8.55-1.209.045-.117.126-.3-.117-.343,0-.054.063-.1,0-.162-.171-.1-.361-.144-.487-.325a.307.307,0,0,0-.325-.108,2,2,0,0,0-1.209.749c-.307.4-.695.722-1,1.119a5.557,5.557,0,0,0-.568.74c-.135.235-.28.478-.406.713s-.334.523-.478.785a6.913,6.913,0,0,0-.451.9,7.957,7.957,0,0,0-.451,1.164c-.117.586-.352,1.137-.469,1.723s-.162,1.173-.235,1.8a.74.74,0,0,0,.37-.253,12.68,12.68,0,0,0,.9-1.209c.09-.117.154-.216.307-.235s.244-.117.144-.28v-.054h.18m-.614,10.647c.235,0,.244-.235.316-.406a.275.275,0,0,0-.19-.388.361.361,0,0,0,.307-.406.6.6,0,0,1,.153-.46.469.469,0,0,0,.108-.451.379.379,0,0,1,.262-.487c.045,0,.063-.063.045-.126-.18,0-.2-.1-.144-.216.117-.271,0-.614.28-.839a.18.18,0,0,0,0-.171.966.966,0,0,1,.442-1.029,1.1,1.1,0,0,0,.388-.974c-.09,0-.162.135-.3,0,.208-.217.153-.442,0-.731q-.269.4-.577.776c-.189.262-.307.6-.514.848-.415.505-.695,1.092-1.065,1.624a11.585,11.585,0,0,0-.695,1.371c-.262.469-.343.839-.587,1.218-.063.108-.081.171,0,.226-.054.09-.135.162-.144.235,0,.343-.379.514-.442.9,0,.162-.153.352-.19.55a2.926,2.926,0,0,1-.108.4,14.793,14.793,0,0,0-.478,1.75c0,.144,0,.289.108.334s.379.262.614.108a.28.28,0,0,1,.171,0,.623.623,0,0,0,.722-.253.289.289,0,0,1,.3-.108.83.83,0,0,0,.09-.5c.09,0,.189.09.253,0a.207.207,0,0,0,0-.271c-.09-.108.063-.505.171-.532.289-.054.388-.162.4-.478-.063,0-.144.054-.217,0a3.137,3.137,0,0,1,.307-.9c.144,0,.063.153.216.162a1.8,1.8,0,0,1,0-.695m3.086-12.307.361.054c.108,0,.153-.045.153-.153s-.045-.153-.153-.144-.307,0-.361.244m-5.414.767c.235-.126.208-.307-.054-.514-.189.2,0,.325.054.514m5.91-2.923c.09.09.1.271.28.244s.1-.072.072-.117a.515.515,0,0,0-.352-.126m-2.49,11.649c.081-.09.181-.162.09-.289a.09.09,0,0,0-.153,0,.208.208,0,0,0,.063.3m1-3.9c.09-.244.09-.244-.126-.28a.2.2,0,0,0,.126.28" transform="translate(-904.89 -505.248)" fill="#f9f9f9"></path><path id="Path_33" data-name="Path 33" d="M935.189,568.784a.905.905,0,0,1,.28-.289c.063,0,.081-.072.09-.144a1.055,1.055,0,0,1,.325-.74,6.989,6.989,0,0,0,.668-1.083c.135-.19.262-.388.406-.6.09.19.217.226.352.144s.153-.19,0-.334.072-.3.072-.46.108-.2,0-.334,0-.1.063-.153a3.7,3.7,0,0,0,.28-.388c.09-.126.072-.117.054-.135-.244-.307.117-.559,0-.9h.271c.081.135,0,.316.126.424.343-.37.3-.767-.09-.9.153-.108-.226-.433.18-.433,0,.09-.081.226.09.289.108-.09.081-.235.126-.334a.163.163,0,0,0-.18,0v-.162c.208-.072.19-.289.28-.424s-.117-.2-.216-.289c.135-.117.271.054.379,0s-.1-.072-.135-.162c.235,0,.271-.108.217-.3a1.518,1.518,0,0,1,.117-.848c.1-.316,0-.65.117-.965,0-.126-.171-.126-.162-.262.208.135.4,0,.478-.415-.072-.063-.072.054-.126.054-.09-.262.244-.6-.153-.83.189-.09.3-.2.217-.415s.063-.343.117-.514a.541.541,0,0,0,0-.559l.162-.054c-.135-.144-.144-.352-.289-.5.235-.072.153-.253.117-.388a1.506,1.506,0,0,1,0-.722c0-.081.09-.153,0-.226s-.081-.415-.081-.614a4.5,4.5,0,0,0-.09-1.1,3.214,3.214,0,0,1,0-1.02v-.072c-.235-.162-.135-.505-.352-.677a2.436,2.436,0,0,0-1.191-.514c0-.072.054-.144-.045-.189a.622.622,0,0,0-.7.217,2.457,2.457,0,0,1-.3.316,8.009,8.009,0,0,0-.776,1.516,3.948,3.948,0,0,0-.406.713c-.135.406-.46.713-.632,1.119a2.23,2.23,0,0,1-.5.821,1.253,1.253,0,0,0-.262.55c-.153.559-.415,1.074-.559,1.633a.253.253,0,0,1-.09.126,1.858,1.858,0,0,0-.532.9,12.893,12.893,0,0,0-.551,2.184,1.662,1.662,0,0,1-.1.3.126.126,0,0,1-.162.09c-.063,0-.135,0-.108-.144a.18.18,0,0,0-.081-.207.271.271,0,0,0-.126.352.821.821,0,0,1,0,.568c0,.162-.162.352.09.487l-.307.108c-.135,0,0-.4-.352-.18.208-.208.217-.433.4-.568s0-.135-.054-.2a.2.2,0,0,1,0-.307.218.218,0,0,1,.054-.171c.072-.262,0-.55.235-.776a.225.225,0,0,0,0-.226c-.072-.09-.126,0-.28,0,.532-.325.37-.794.307-1.254.126,0,.063.135.162.144s0-.316.144-.406c.117.153.262,0,.415.063-.117-.19-.171-.2-.415-.063a2.655,2.655,0,0,1,.307-1.038c.072-.189.172-.379.253-.568s-.09-.126-.063-.262a1.147,1.147,0,0,1,.4-.55c.117-.117.3-.19.162-.433s0-.316.1-.46.28-.072.4-.153-.054-.18-.135-.216c.063-.271,0-.578.271-.767.054.09-.045.19,0,.316a.325.325,0,0,0,.2-.4c.316,0,.054-.316.181-.433-.253.054-.163.262-.19.415h-.361s0-.072.054-.081c.18-.063.343-.108.19-.37a1.052,1.052,0,0,1,.162-.4,2.049,2.049,0,0,0,.235-.415.319.319,0,0,1,.307-.289.1.1,0,0,0,.1-.126,2.284,2.284,0,0,1,.388-1.02,1.4,1.4,0,0,0,.451-.794c0-.235.325-.361.55-.433s.451-.117.677-.181a1.886,1.886,0,0,1,1.038-.162,6.708,6.708,0,0,1,.9.2,7.208,7.208,0,0,1,.857.37,2.192,2.192,0,0,1,.659.83,1.642,1.642,0,0,1,.108.587l-.3.226c-.081-.054,0-.162-.072-.208a.28.28,0,0,0-.19.235c.108.072.2.1.289,0a.3.3,0,0,0,.244.063c.126,0,.3.09.3.18,0,.3.262.56.117.9-.063.144-.063.262.09.352a.2.2,0,0,1,.081.126c0,.379.253.731.117,1.119v.1a1.227,1.227,0,0,1-.108.9c-.081.2,0,.307.208.289-.054.153-.289.262-.063.442-.153.063-.343.1-.307.28s.135.081.208,0,0-.081.09-.1a2.182,2.182,0,0,0-.09,1.227c0,.081-.162,0-.226.09a.9.9,0,0,1,.144.9,1.092,1.092,0,0,0-.09.7.5.5,0,0,1-.18.343c.207.144,0,.289,0,.442s0,.334-.19.379a.1.1,0,0,0-.072.1,2.974,2.974,0,0,0,0,.749,1.741,1.741,0,0,1-.343,1.453.226.226,0,0,0,0,.361c-.09,0-.117-.054-.172-.072a2.113,2.113,0,0,1,.163-.992c-.144,0-.289-.063-.352.081a.641.641,0,0,0,.09.8,1.054,1.054,0,0,0-.487,0,.73.73,0,0,0,.207.415l.37-.325a3.181,3.181,0,0,0,0,.587c0,.081-.28.316-.379.316-.253,0-.307,0-.244.262s.117.316-.072.46c.271.045.307.144.171.316s-.235.28-.081.478-.063.117-.09.19,0-.081-.045-.126a.19.19,0,0,0-.189.171c0,.2.162.253.316.361-.307.217-.352.614-.659.83a.478.478,0,0,0-.09.532c-.117.072-.262.1-.343.235.289.37-.09.586-.216.9s-.424.55-.55.9a.135.135,0,0,1-.081.09c-.469.108-.46.568-.577.9a2.248,2.248,0,0,1-.505.74.544.544,0,0,0-.135.171.839.839,0,0,1-.586.487.75.75,0,0,0-.361.216.74.74,0,0,1-.559.271.263.263,0,0,0-.171,0,.46.46,0,0,1-.55.063.821.821,0,0,0-.487,0,3.281,3.281,0,0,1-.731,0,6.754,6.754,0,0,1-.848-.189c-.19,0-.343-.19-.551-.226s-.1-.153-.108-.253,0-.334-.2-.325c0-.108,0-.162.072-.18.289-.09.208-.271.1-.442a3.949,3.949,0,0,1-.307-.505l-.316.18a.647.647,0,0,1-.117.442c.244,0,.469-.063.514.235a.587.587,0,0,1-.578-.28l-.767-1.29c.054-.072.154-.144.063-.253s-.135,0-.2,0a.271.271,0,0,1-.063-.289.9.9,0,0,0-.1-.587c-.108-.28-.19-.559-.28-.848.1.072.19-.081.289,0,.117.388.253.5.523.415,0-.162-.117-.253-.226-.352s.063-.271,0-.415a1.722,1.722,0,0,0-.541.361c-.244-.388-.144-.848-.28-1.254a.171.171,0,0,1,.135-.226c.153.054,0,.289.217.289s.081-.2.171-.271a.126.126,0,0,0,0-.172c-.172-.117-.081-.28-.072-.424-.244-.162-.424.108-.659.072a2.439,2.439,0,0,0-.072-.505c.207.117.289.081.289-.162a3.2,3.2,0,0,0-.162-1.164c.108-.126.451-.09.262-.424-.162.153-.4.226-.478.487v-.668c0-.217.117-.244.307-.235s.307-.081.253-.325c-.09,0-.054.126-.144.117a.253.253,0,0,1-.054-.253c.144-.442.1-.9.208-1.363,0-.117-.063-.226-.189-.153-.28.162-.253,0-.262-.208a.253.253,0,0,0,.28-.1c.063,0,0,.144.126.117.207-.253.2-.271-.126-.659-.163.171-.46.271-.334.6a.445.445,0,0,1,.325-.659,1.967,1.967,0,0,0,.6-.442c-.3.19-.623-.1-.9.253a.478.478,0,0,1,.217-.478,1.652,1.652,0,0,0,.559-.957c0-.162-.108-.253-.144-.379-.144-.433.09-.758.171-1.146.135.117.28.117.271-.054s.063-.316.054-.478c-.289,0-.352-.126-.126-.379a1.435,1.435,0,0,0,.262-.578c.207-.568.388-1.155.55-1.732a9.8,9.8,0,0,1,.731-1.552,1.462,1.462,0,0,0,.189-1.263c.144.054.226.135.343.081s.108-.162.162-.244c.18-.28,0-.668.307-.9a2.784,2.784,0,0,0,.577-.9,1.245,1.245,0,0,0,.226-.794c.126,0,.18.162.3,0a.388.388,0,0,0,.117-.487c.244,0,.37-.117.5-.559-.081-.09-.19-.09-.325-.1l.153-.2c-.208-.208-.189-.253.09-.334a1.877,1.877,0,0,0,.9-.5c.171-.208.433-.424.451-.749,0-.144.117-.126.207-.108a1.744,1.744,0,0,0,.65.135,1.038,1.038,0,0,1,.514.207.451.451,0,0,1,.189.65,4.651,4.651,0,0,1-.614,1.092,5.412,5.412,0,0,0-.4.749c-.235.424-.559.812-.749,1.254a6.613,6.613,0,0,1-.9,1.308,3.346,3.346,0,0,0-.767,1.308c0,.189-.3.334-.415.532a1.332,1.332,0,0,0-.117.226c-.235.6-.514,1.182-.722,1.8-.1-.081-.171-.162-.307-.117a3.607,3.607,0,0,0,.081.767c-.289,0-.37.162-.325.433a1.742,1.742,0,0,1-.325,1.254c-.108.162-.226.271-.18.469a.09.09,0,0,1-.054.081.451.451,0,0,0-.235.541,1,1,0,0,1-.162.659,7.558,7.558,0,0,0-.388,1.155s0,0,0,.054c.054.668-.144,1.317-.108,1.985a.269.269,0,0,0,0,.126c.253.262.126.514,0,.794a.433.433,0,0,1-.523.334c0,.415-.262.812-.081,1.254.108.045.19-.054.28,0s.189,0,.208.09-.063.117-.144.144a1,1,0,0,0-.334.18c-.117.1,0,.126.063.126h0a.406.406,0,0,0-.108.568c.144-.063.1-.208.135-.307h0l.144.1c-.343.289-.171.65-.153.984a.153.153,0,0,0,.172.153c.117,0,.09-.126.081-.207a2.822,2.822,0,0,0-.063-.6.171.171,0,0,1,.153-.181.145.145,0,0,1,.172.154,1.254,1.254,0,0,0,.18.695c.135.343.063.749.334,1.038,0,.587.487.956.6,1.507a3.521,3.521,0,0,0,.659,1.534c.063.09,0,.19,0,.271.253.1.388.325.568.505.361.361.794.46,1.1.208a2.249,2.249,0,0,0,.532-.56,1.923,1.923,0,0,1,.659-.731,2.705,2.705,0,0,0,.623-.677.546.546,0,0,0,0,.126c0,.072,0,.153.117.117s.09-.126.081-.2-.117-.072-.189-.063m4.665-14.726c-.108.208,0,.433-.108.632a.353.353,0,0,0,.262,0c.171-.262-.063-.433-.117-.641a.234.234,0,0,0,.135-.226.9.9,0,0,1,.126-.379c.108.054.189.2.334.081a.785.785,0,0,0,.072-.668c-.054-.081-.108-.162-.226-.09s.135.153.09.3c-.244,0-.126.19-.2.289l-.108-.054c-.09.162-.262.126-.388.2s-.1.054-.072.117.135,0,.2,0a.732.732,0,0,0,0,.37m-9.7,15.628c.117,0,.307.1.28-.144a1.118,1.118,0,0,0-.135-.379.126.126,0,0,0-.144-.081.122.122,0,0,0-.117.126v.225c0,.081-.09-.09-.153,0s0,.307.262.28m-.379-10.214c-.09.162-.153.316-.343.37s-.18.451-.063.5a.226.226,0,0,1,.18.235c0,.181-.19,0-.235.153.135.1.117.334.325.433.37-1.516.37-1.516.135-1.687m.162-1.444a.235.235,0,0,0-.3-.09c-.126,0-.054.153-.063.253s.1.3,0,.433-.216.1-.135.235.162-.045.244,0h.054c.343,0,.406-.063.469-.406a2.394,2.394,0,0,0,.054-.352c0-.081,0-.18-.09-.217s-.135.063-.2.144m-.541,3.7a.568.568,0,0,1,0,.388.235.235,0,0,0,.108.361c.162,0,.126-.162.19-.253s0-.063,0-.1a1.918,1.918,0,0,1,.063-.6c.063-.2,0-.207,0-.18s-.244-.2-.28.063c-.072-.081-.108-.181-.226-.162s-.09,0-.081.081-.054.343.054.487.117-.081.217-.09m10.737-2.445c-.189.081-.226.208-.117.388a1.164,1.164,0,0,1,.108.9c-.063.253,0,.289.271.226a3.527,3.527,0,0,0,0-.614.722.722,0,0,1,.09-.641c.063-.072.135-.181,0-.289-.108.081-.081.28-.262.253s0-.162-.135-.208m-10.232,9.023c-.352.217.19.433,0,.632.1.045.19.054.208,0a.587.587,0,0,0-.181-.587m2.635-8.391c-.09-.153-.2-.289-.352-.226s-.117.253-.054.415a1.374,1.374,0,0,0,.406-.19m-2.183-4.115c.144-.108.334-.09.343-.262s-.153-.162-.253-.144-.126.208-.09.406m-1.317,8.3c.054-.18.126-.343,0-.478a.108.108,0,0,0-.162.063c0,.162-.09.352.189.415m10.738-4.791c-.045-.162.262-.271.054-.406a.2.2,0,0,0-.271.081c-.081.19.126.217.217.325m-9.745,7.76a.325.325,0,0,0,.171-.415s-.054-.09-.108-.081a.125.125,0,0,0-.108.117v.379m9.8-13.805c.235-.208.244-.262.108-.523-.126.162-.3.289-.108.523m.361,1.516a.614.614,0,0,0,.063-.659c-.244.217,0,.46-.063.659m.18,3.844c.144-.162.171-.28.081-.406s-.108-.081-.153,0,.045.244.072.424m.388-1.417c.135.045.235,0,.244-.072a.253.253,0,0,0-.171-.307c-.081.126,0,.253-.072.379m-10.223,11.45c.171-.1.244-.2.144-.388a.271.271,0,0,0-.144.388m6.425-2.111c.28-.19.289-.235.063-.37-.054.117-.144.217-.063.37m2.878-5.125c.162,0,.226,0,.244-.126a.19.19,0,0,0-.126-.253c-.063.126,0,.262-.117.379m-1.741,4.088a.37.37,0,0,0,.144-.352c0-.081-.108-.081-.2,0s0,.235.054.4m-5.676-6.56c-.09-.054-.153,0-.18,0a.325.325,0,0,0,.1.325c.1-.126,0-.253.081-.361m7.471-6.515c.117-.1.1-.189,0-.262s-.126-.045-.153,0,.054.19.144.244m-9.195,2.184c.18-.307.18-.307.045-.415,0,.135-.09.244-.045.415m-1.534,8.121a.189.189,0,0,0-.2.172c-.018.108.126.117.2.054s.054-.135,0-.226m11.441-7.922c0,.144,0,.244.135.289,0-.126.063-.235-.135-.289" transform="translate(-902.543 -504.432)" fill="#f9f9f9"></path><path id="Path_34" data-name="Path 34" d="M946.709,558.921c.505-.244.65-.9,1.29-1,.108-.8.8-1.344.9-2.174a.542.542,0,0,0,.659,0,1.435,1.435,0,0,1,1.354-.108c.081,0,.18.081.108.18a5.992,5.992,0,0,0-.641,1.408,9.6,9.6,0,0,0-.569,2.066,4.41,4.41,0,0,1-.162.821,5.415,5.415,0,0,0-.117,1.426.641.641,0,0,1-.081.37c-.09-.2-.271-.117-.415-.171,0,.144.153.19.126.316s-.063-.072-.162,0,0,.253-.171.171a.28.28,0,0,1-.19-.325c0-.108,0-.171-.1-.208a.462.462,0,0,1-.235-.406,1.79,1.79,0,0,1,.072-.9c-.46-.208-.153-.695-.379-.974a.189.189,0,0,0-.181.126c-.063.406-.478.641-.514,1.065,0,0,0,.1-.045.117-.406.262-.334.785-.586,1.11s-.289.9-.6,1.236a.135.135,0,0,0,0,.1,2.075,2.075,0,0,1-.37.9c-.162.352-.253.749-.4,1.119a9.879,9.879,0,0,1-.56,1.489.109.109,0,0,0,0,.072,9.156,9.156,0,0,0-.135,1.218c0,.19-.271.271-.153.478-.343.162-.668.28-1,0a.405.405,0,0,0-.3-.063.216.216,0,0,1-.235-.108c-.135-.235-.28-.235-.469-.054a2.756,2.756,0,0,1,.19-.262.5.5,0,0,0,.135-.334,3.183,3.183,0,0,1,.361-1.462c.054-.126.054-.19-.09-.217a2.923,2.923,0,0,0,.532-1.94c.343,0,.126-.578.577-.541-.144-.207-.55-.18-.415-.541.117,0,.235.181.379,0s0-.072-.3-.28a.361.361,0,0,0,.181-.478c0-.081,0-.162.09-.18a.135.135,0,0,0,.1-.217c-.2-.325,0-.632,0-.9s.162-.46.054-.7c-.045-.081,0-.117.063-.171.081-.28.271-.541.081-.848-.054-.09,0-.153.063-.217a.379.379,0,0,0,.063-.532.674.674,0,0,1-.063-.108c-.063-.487-.316-.9-.415-1.426a7.369,7.369,0,0,1,1.1-.153,3.9,3.9,0,0,1,.65,0c.352.063.487.172.559.523a.9.9,0,0,0,0,.18,2.147,2.147,0,0,1,.208,1.254.309.309,0,0,0,.117.3" transform="translate(-903.921 -505.487)" fill="#f9f9f9"></path><path id="Path_35" data-name="Path 35" d="M974.087,547.969a.442.442,0,0,1,0-.135c-.226,0-.253.153-.316.316-.208-.081-.18-.28-.162-.4a6.187,6.187,0,0,0,0-1,.548.548,0,0,1,.153-.478s.045-.054,0-.063a.785.785,0,0,1,.081-.722c.19-.442.172-.9.361-1.381a.114.114,0,0,1,.126-.108,3.4,3.4,0,0,1,1.9.4.156.156,0,0,1,.144.172c-.442,0-.442.442-.578.7-.2.406-.424.794-.641,1.191a1.054,1.054,0,0,0-.108.28c0,.054,0,.135-.081.162-.388.235-.514.677-.8.984a.413.413,0,0,1-.108.081" transform="translate(-906.964 -504.36)" fill="#f9f9f9"></path><path id="Path_36" data-name="Path 36" d="M957.278,550.937c-.181.208-.162.523-.487.5-.072.108.153.081.063.18s-.108,0-.162,0h-.216c-.045,0-.063.063-.144.045a.28.28,0,0,0-.37.153c-.054.144-.153.162-.28.208-.045-.162-.171-.3,0-.442a.134.134,0,0,0,0-.1c-.117-.352.126-.659.135-1s.235-.208.433-.208a.28.28,0,0,1,.19-.442.118.118,0,0,0,.063,0c0-.307.271-.559.28-.9s0-.388.289-.37.253-.154.3-.325c.226.117.433.189.641.289a3.447,3.447,0,0,0,.505.126.5.5,0,0,1,.2.821,13.557,13.557,0,0,0-1.1,1.353c-.1.108-.181.253-.343.09" transform="translate(-905.206 -504.775)" fill="#f9f9f9"></path><path id="Path_37" data-name="Path 37" d="M929.47,566.452c.1-.081.235-.054.343-.135s.216,0,.18.162a.533.533,0,0,1-.126.244.28.28,0,0,0-.37,0h0v-.262Z" transform="translate(-902.653 -506.539)" fill="#f9f9f9"></path><path id="Path_38" data-name="Path 38" d="M928.57,559.5c.144-.09.244.063.37,0,0,.162-.189.289,0,.469-.235-.1-.379-.235-.334-.514" transform="translate(-902.565 -505.871)" fill="#f9f9f9"></path><path id="Path_39" data-name="Path 39" d="M968.65,558.665a1.144,1.144,0,0,1,.054-.415l.334.144C968.957,558.557,968.9,558.746,968.65,558.665Z" transform="translate(-906.481 -505.754)" fill="#f9f9f9"></path><path id="Path_40" data-name="Path 40" d="M929.683,565c.126,0,.225.126.325,0,.09.307-.424.108-.3.433-.153-.153-.081-.289,0-.442" transform="translate(-902.668 -506.412)" fill="#f9f9f9"></path><path id="Path_41" data-name="Path 41" d="M930,573.06a1.415,1.415,0,0,0,.4.523c-.307,0-.352-.09-.4-.523" transform="translate(-902.705 -507.201)" fill="#f9f9f9"></path><path id="Path_42" data-name="Path 42" d="M931.718,550.96c-.072-.181.054-.253.144-.37,0,.162,0,.289-.144.37" transform="translate(-902.871 -505.005)" fill="#f9f9f9"></path><path id="Path_43" data-name="Path 43" d="M962.736,568.806v-.361c0-.117.162,0,.181.063s-.135.2-.217.3" transform="translate(-905.9 -506.745)" fill="#f9f9f9"></path></g></g></g></svg> 